<?xml version="1.0" encoding="UTF-8" standalone="no"?>
<!-- Created with Inkscape (http://www.inkscape.org/) -->

<svg
   width="153.37576mm"
   height="153.37576mm"
   viewBox="0 0 153.37576 153.37576"
   version="1.1"
   id="svg1"
   xml:space="preserve"
   xmlns:xlink="http://www.w3.org/1999/xlink"
   xmlns="http://www.w3.org/2000/svg"
   xmlns:svg="http://www.w3.org/2000/svg"><defs
     id="defs1"><linearGradient
       id="linearGradient5"><stop
         style="stop-color:#ffe600;stop-opacity:1;"
         offset="0"
         id="stop5" /><stop
         style="stop-color:#ffd100;stop-opacity:1;"
         offset="1"
         id="stop6" /></linearGradient><linearGradient
       xlink:href="#linearGradient5"
       id="linearGradient1"
       gradientUnits="userSpaceOnUse"
       gradientTransform="matrix(1.5634587,0,0,1.5634587,-8.809392,396.24785)"
       x1="27.957718"
       y1="75.840866"
       x2="126.05801"
       y2="75.840866" /></defs><g
     id="layer1"
     transform="translate(-34.901352,-438.13406)"><g
       id="g4"><rect
         style="fill:url(#linearGradient1);fill-opacity:1;stroke:none;stroke-width:2.97012;stroke-dasharray:none;stroke-opacity:1"
         id="rect1-0"
         width="153.37576"
         height="153.37576"
         x="34.901352"
         y="438.13406"
         ry="76.687881" /><rect
         style="fill:#fcffff;fill-opacity:1;stroke:#121611;stroke-width:2.8327;stroke-dasharray:none;stroke-opacity:1;paint-order:markers stroke fill"
         id="rect2-56"
         width="26.993979"
         height="5.4924445"
         x="78.741287"
         y="478.43747"
         ry="2.7462223"
         transform="rotate(-1.3075171)" /><path
         style="fill:#fcffff;fill-opacity:1;stroke:#121611;stroke-width:2.8327;stroke-dasharray:none;stroke-opacity:1;paint-order:markers stroke fill"
         d="m 114.23598,483.48825 c -1.22748,0.64915 -17.535441,10.72676 -2.48838,20.244 l 12.33883,-0.28162 c 0,0 20.7292,-13.67247 0.34219,-36.03421 l -0.61702,-1.51937 -9.75456,0.18411 c 0,0 -0.99172,-2.55776 0.43373,-2.64521 1.42546,-0.0874 9.76746,-0.22293 9.76746,-0.22293 0,0 3.42547,-3.86642 5.83786,0.80008 0,0 1.22955,-1.45548 1.83188,-1.52414 0.60234,-0.0686 0.74439,-1.06014 1.97796,0.0647 1.2335,1.12478 1.16683,7.82435 -0.20503,7.85565 -1.37182,0.0313 -1.88071,-0.61587 -1.88071,-0.61587 0,0 6.83699,15.71059 6.47318,19.01303 0,0 13.70582,-0.86185 16.59774,10.38195 0,0 -2.93096,-2.12919 -3.65917,-1.56363 0,0 6.03952,7.1092 3.22162,13.54214 0,0 -1.95099,5.54897 -6.56976,7.57968 -4.84295,2.12924 -9.62219,1.16401 -11.88208,-0.11702 0,0 -7.91116,-4.91388 -6.48805,-12.11951 l -2.35079,2.46058 -21.96243,0.46245 -1.33164,-0.51313 c 0,0 0.15853,6.94544 -6.971736,10.91269 -7.130267,3.96725 -13.141415,-0.86471 -13.141415,-0.86471 0,0 -7.730818,-5.3362 -5.057883,-14.09322 l -5.310314,2.06229 c 0,0 2.773538,-7.74997 6.316693,-8.99549 0,0 4.037556,-13.60205 11.637298,-14.00844 7.599745,-0.40639 22.894567,-0.44491 22.894567,-0.44491 z"
         id="path2-7" /><rect
         style="fill:#fcffff;fill-opacity:1;stroke:#121611;stroke-width:2.8327;stroke-dasharray:none;stroke-opacity:1;paint-order:markers stroke fill"
         id="rect3-6"
         width="19.320454"
         height="17.124947"
         x="56.783215"
         y="467.89633"
         ry="1.3173037"
         transform="rotate(-1.3075171)" /><rect
         style="fill:#fcffff;fill-opacity:1;stroke:#121611;stroke-width:2.8327;stroke-dasharray:none;stroke-opacity:1;paint-order:markers stroke fill"
         id="rect3-8-9"
         width="20.048485"
         height="2.4060278"
         x="56.032211"
         y="464.48865"
         ry="0.57319331"
         transform="rotate(-1.3075171)" /><text
         xml:space="preserve"
         style="font-style:normal;font-variant:normal;font-weight:normal;font-stretch:normal;font-size:22.8081px;font-family:'Fugaz One';-inkscape-font-specification:'Fugaz One';fill:#1a1a1a;stroke:none;stroke-width:1.17157;stroke-linecap:round;stroke-linejoin:bevel;stroke-dasharray:none;stroke-opacity:1;paint-order:stroke fill markers"
         x="60.432838"
         y="565.52405"
         id="text1-0-9-4"><tspan
           id="tspan1-9-7-9"
           style="fill:#1a1a1a;stroke:none;stroke-width:1.17157;stroke-linecap:round;stroke-linejoin:bevel;stroke-dasharray:none;stroke-opacity:1;paint-order:stroke fill markers"
           x="60.432838"
           y="565.52405">DELIVERY</tspan></text><text
         xml:space="preserve"
         style="font-style:normal;font-variant:normal;font-weight:normal;font-stretch:normal;font-size:22.8081px;font-family:'Fugaz One';-inkscape-font-specification:'Fugaz One';fill:#105ee2;fill-opacity:1;stroke:none;stroke-width:1.17157;stroke-linecap:round;stroke-linejoin:bevel;stroke-dasharray:none;stroke-opacity:1;paint-order:stroke fill markers"
         x="58.97271"
         y="563.74005"
         id="text1-0-66"><tspan
           id="tspan1-9-5"
           style="fill:#105ee2;fill-opacity:1;stroke:none;stroke-width:1.17157;stroke-linecap:round;stroke-linejoin:bevel;stroke-dasharray:none;stroke-opacity:1;paint-order:stroke fill markers"
           x="58.97271"
           y="563.74005">DELIVERY</tspan></text><text
         xml:space="preserve"
         style="font-style:normal;font-variant:normal;font-weight:normal;font-stretch:normal;font-size:25.0782px;font-family:'Fugaz One';-inkscape-font-specification:'Fugaz One';fill:#12161b;fill-opacity:1;stroke:none;stroke-width:1.39828;stroke-linecap:round;stroke-linejoin:bevel;stroke-dasharray:none;stroke-opacity:1;paint-order:stroke fill markers"
         x="51.15741"
         y="546.28284"
         id="text1-09-0"><tspan
           id="tspan1-97-8"
           style="fill:#12161b;fill-opacity:1;stroke:none;stroke-width:1.39828;stroke-linecap:round;stroke-linejoin:bevel;stroke-dasharray:none;stroke-opacity:1;paint-order:stroke fill markers"
           x="51.15741"
           y="546.28284">TUCUPITA</tspan></text><text
         xml:space="preserve"
         style="font-style:normal;font-variant:normal;font-weight:normal;font-stretch:normal;font-size:25.0782px;font-family:'Fugaz One';-inkscape-font-specification:'Fugaz One';fill:#105ee2;fill-opacity:1;stroke:none;stroke-width:1.39828;stroke-linecap:round;stroke-linejoin:bevel;stroke-dasharray:none;stroke-opacity:1;paint-order:stroke fill markers"
         x="49.172005"
         y="545.21942"
         id="text1-5"><tspan
           id="tspan1-2"
           style="fill:#105ee2;fill-opacity:1;stroke:none;stroke-width:1.39828;stroke-linecap:round;stroke-linejoin:bevel;stroke-dasharray:none;stroke-opacity:1;paint-order:stroke fill markers"
           x="49.172005"
           y="545.21942">TUCUPITA</tspan></text></g></g></svg>
